<svg width="1440" height="296" viewBox="0 0 1440 296" fill="none" xmlns="http://www.w3.org/2000/svg">
<g clip-path="url(#clip0_401_609)">
<rect width="1440" height="296" fill="#0B1B2B"/>
<g filter="url(#filter0_f_401_609)">
<circle cx="-12" cy="22" r="118" fill="#14589C"/>
</g>
<g filter="url(#filter1_f_401_609)">
<circle cx="1355.07" cy="42.9365" r="77.6256" transform="rotate(15 1355.07 42.9365)" fill="#14589C"/>
</g>
<rect x="212" y="125" width="69" height="3" rx="1.5" fill="#1562AF" fill-opacity="0.14"/>
<rect x="99" y="125" width="106" height="3" rx="1.5" fill="#1562AF" fill-opacity="0.14"/>
<rect y="125" width="92" height="3" rx="1.5" fill="#1562AF" fill-opacity="0.14"/>
<rect x="287" y="125" width="77" height="3" rx="1.5" fill="#1562AF" fill-opacity="0.34"/>
<rect x="328" y="136" width="36" height="3" rx="1.5" fill="#1562AF" fill-opacity="0.14"/>
<rect x="184" y="136" width="137" height="3" rx="1.5" fill="#1562AF" fill-opacity="0.14"/>
<rect x="72" y="136" width="105" height="3" rx="1.5" fill="#1562AF" fill-opacity="0.34"/>
<rect y="136" width="65" height="3" rx="1.5" fill="#1562AF" fill-opacity="0.14"/>
<rect y="70" width="144" height="3" rx="1.5" fill="#1562AF" fill-opacity="0.14"/>
<rect x="151" y="70" width="136" height="3" rx="1.5" fill="#1562AF" fill-opacity="0.34"/>
<rect width="46" height="3" rx="1.5" transform="matrix(-1 0 0 1 340 70)" fill="#1562AF" fill-opacity="0.14"/>
<rect x="122" y="81" width="111" height="3" rx="1.5" fill="#1562AF" fill-opacity="0.14"/>
<rect x="122" y="222" width="111" height="3" rx="1.5" fill="#1562AF" fill-opacity="0.14"/>
<rect y="81" width="115" height="3" rx="1.5" fill="#1562AF" fill-opacity="0.34"/>
<rect y="222" width="115" height="3" rx="1.5" fill="#1562AF" fill-opacity="0.34"/>
<rect x="275" y="81" width="28" height="3" rx="1.5" fill="#1562AF" fill-opacity="0.34"/>
<rect x="240" y="81" width="28" height="3" rx="1.5" fill="#1562AF" fill-opacity="0.14"/>
<rect x="240" y="222" width="37" height="3" rx="1.5" fill="#1562AF" fill-opacity="0.14"/>
<rect x="310" y="81" width="83" height="3" rx="1.5" fill="#1562AF" fill-opacity="0.14"/>
<rect x="284" y="92" width="89" height="3" rx="1.5" fill="#1562AF" fill-opacity="0.14"/>
<rect x="284" y="233" width="19" height="3" rx="1.5" fill="#1562AF" fill-opacity="0.14"/>
<rect x="134" y="92" width="143" height="3" rx="1.5" fill="#1562AF" fill-opacity="0.34"/>
<rect x="134" y="233" width="143" height="3" rx="1.5" fill="#1562AF" fill-opacity="0.34"/>
<rect x="95" y="92" width="32" height="3" rx="1.5" fill="#1562AF" fill-opacity="0.14"/>
<rect x="95" y="233" width="32" height="3" rx="1.5" fill="#1562AF" fill-opacity="0.14"/>
<rect y="92" width="88" height="3" rx="1.5" fill="#1562AF" fill-opacity="0.14"/>
<rect y="233" width="88" height="3" rx="1.5" fill="#1562AF" fill-opacity="0.14"/>
<rect x="349" y="103" width="60" height="3" rx="1.5" fill="#1562AF" fill-opacity="0.34"/>
<rect x="201" y="103" width="142" height="3" rx="1.5" fill="#1562AF" fill-opacity="0.14"/>
<rect x="201" y="244" width="51" height="3" rx="1.5" fill="#1562AF" fill-opacity="0.14"/>
<rect x="259" y="244" width="62" height="3" rx="1.5" fill="#1562AF" fill-opacity="0.34"/>
<rect x="163" y="103" width="31" height="3" rx="1.5" fill="#1562AF" fill-opacity="0.14"/>
<rect x="106" y="103" width="51" height="3" rx="1.5" fill="#1562AF" fill-opacity="0.14"/>
<rect x="106" y="244" width="88" height="3" rx="1.5" fill="#1562AF" fill-opacity="0.14"/>
<rect x="32" y="103" width="67" height="3" rx="1.5" fill="#1562AF" fill-opacity="0.34"/>
<rect y="244" width="99" height="3" rx="1.5" fill="#1562AF" fill-opacity="0.34"/>
<rect y="103" width="25" height="3" rx="1.5" fill="#1562AF" fill-opacity="0.14"/>
<rect y="114" width="72" height="3" rx="1.5" fill="#1562AF" fill-opacity="0.34"/>
<rect y="255" width="72" height="3" rx="1.5" fill="#1562AF" fill-opacity="0.14"/>
<rect x="79" y="114" width="97" height="3" rx="1.5" fill="#1562AF" fill-opacity="0.14"/>
<rect x="79" y="255" width="55" height="3" rx="1.5" fill="#1562AF" fill-opacity="0.34"/>
<rect width="61" height="3" rx="1.5" transform="matrix(-1 0 0 1 1250 197)" fill="#1562AF" fill-opacity="0.14"/>
<rect width="94" height="3" rx="1.5" transform="matrix(-1 0 0 1 1350 197)" fill="#1562AF" fill-opacity="0.34"/>
<rect width="82" height="3" rx="1.5" transform="matrix(-1 0 0 1 1438 197)" fill="#1562AF" fill-opacity="0.14"/>
<rect width="68" height="3" rx="1.5" transform="matrix(-1 0 0 1 1183 197)" fill="#1562AF" fill-opacity="0.34"/>
<rect width="42" height="3" rx="1.5" transform="matrix(-1 0 0 1 1109 208)" fill="#1562AF" fill-opacity="0.34"/>
<rect width="32" height="3" rx="1.5" transform="matrix(-1 0 0 1 1147 208)" fill="#1562AF" fill-opacity="0.14"/>
<rect width="122" height="3" rx="1.5" transform="matrix(-1 0 0 1 1275 208)" fill="#1562AF" fill-opacity="0.14"/>
<rect width="93" height="3" rx="1.5" transform="matrix(-1 0 0 1 1374 208)" fill="#1562AF" fill-opacity="0.14"/>
<rect width="58" height="3" rx="1.5" transform="matrix(-1 0 0 1 1438 208)" fill="#1562AF" fill-opacity="0.34"/>
<rect width="118" height="3" rx="1.5" transform="matrix(-1 0 0 1 1438 30)" fill="#1562AF" fill-opacity="0.14"/>
<rect width="128" height="3" rx="1.5" transform="matrix(-1 0 0 1 1438 219)" fill="#1562AF" fill-opacity="0.14"/>
<rect width="112" height="3" rx="1.5" transform="matrix(-1 0 0 1 1314 30)" fill="#1562AF" fill-opacity="0.34"/>
<rect width="121" height="3" rx="1.5" transform="matrix(-1 0 0 1 1257 219)" fill="#1562AF" fill-opacity="0.14"/>
<rect x="1158" y="30" width="38" height="3" rx="1.5" fill="#1562AF" fill-opacity="0.14"/>
<rect x="1263" y="219" width="41" height="3" rx="1.5" fill="#1562AF" fill-opacity="0.34"/>
<rect width="92" height="3" rx="1.5" transform="matrix(-1 0 0 1 1338 41)" fill="#1562AF" fill-opacity="0.14"/>
<rect width="99" height="3" rx="1.5" transform="matrix(-1 0 0 1 1330 230)" fill="#1562AF" fill-opacity="0.14"/>
<rect width="94" height="3" rx="1.5" transform="matrix(-1 0 0 1 1438 41)" fill="#1562AF" fill-opacity="0.34"/>
<rect width="102" height="3" rx="1.5" transform="matrix(-1 0 0 1 1438 230)" fill="#1562AF" fill-opacity="0.34"/>
<rect width="23" height="3" rx="1.5" transform="matrix(-1 0 0 1 1212 41)" fill="#1562AF" fill-opacity="0.34"/>
<rect width="23" height="3" rx="1.5" transform="matrix(-1 0 0 1 1241 41)" fill="#1562AF" fill-opacity="0.14"/>
<rect width="62" height="3" rx="1.5" transform="matrix(-1 0 0 1 1225 230)" fill="#1562AF" fill-opacity="0.34"/>
<rect width="68" height="3" rx="1.5" transform="matrix(-1 0 0 1 1183 41)" fill="#1562AF" fill-opacity="0.14"/>
<rect width="79" height="3" rx="1.5" transform="matrix(-1 0 0 1 1186 84)" fill="#1562AF" fill-opacity="0.14"/>
<rect width="79" height="3" rx="1.5" transform="matrix(-1 0 0 1 1186 241)" fill="#1562AF" fill-opacity="0.34"/>
<rect width="127" height="3" rx="1.5" transform="matrix(-1 0 0 1 1319 84)" fill="#1562AF" fill-opacity="0.14"/>
<rect width="127" height="3" rx="1.5" transform="matrix(-1 0 0 1 1319 241)" fill="#1562AF" fill-opacity="0.14"/>
<rect width="29" height="3" rx="1.5" transform="matrix(-1 0 0 1 1354 84)" fill="#1562AF" fill-opacity="0.34"/>
<rect width="29" height="3" rx="1.5" transform="matrix(-1 0 0 1 1354 241)" fill="#1562AF" fill-opacity="0.34"/>
<rect width="78" height="3" rx="1.5" transform="matrix(-1 0 0 1 1438 84)" fill="#1562AF" fill-opacity="0.14"/>
<rect width="78" height="3" rx="1.5" transform="matrix(-1 0 0 1 1438 241)" fill="#1562AF" fill-opacity="0.14"/>
<rect width="53" height="3" rx="1.5" transform="matrix(-1 0 0 1 1128 95)" fill="#1562AF" fill-opacity="0.34"/>
<rect width="53" height="3" rx="1.5" transform="matrix(-1 0 0 1 1128 252)" fill="#1562AF" fill-opacity="0.14"/>
<rect width="126" height="3" rx="1.5" transform="matrix(-1 0 0 1 1260 95)" fill="#1562AF" fill-opacity="0.14"/>
<rect width="126" height="3" rx="1.5" transform="matrix(-1 0 0 1 1260 252)" fill="#1562AF" fill-opacity="0.14"/>
<rect width="27" height="3" rx="1.5" transform="matrix(-1 0 0 1 1293 95)" fill="#1562AF" fill-opacity="0.34"/>
<rect width="45" height="3" rx="1.5" transform="matrix(-1 0 0 1 1344 95)" fill="#1562AF" fill-opacity="0.14"/>
<rect width="78" height="3" rx="1.5" transform="matrix(-1 0 0 1 1344 252)" fill="#1562AF" fill-opacity="0.34"/>
<rect width="60" height="3" rx="1.5" transform="matrix(-1 0 0 1 1410 95)" fill="#1562AF" fill-opacity="0.14"/>
<rect width="88" height="3" rx="1.5" transform="matrix(-1 0 0 1 1438 252)" fill="#1562AF" fill-opacity="0.14"/>
<rect width="22" height="3" rx="1.5" transform="matrix(-1 0 0 1 1438 95)" fill="#1562AF" fill-opacity="0.14"/>
<rect width="64" height="3" rx="1.5" transform="matrix(-1 0 0 1 1438 106)" fill="#1562AF" fill-opacity="0.34"/>
<rect width="64" height="3" rx="1.5" transform="matrix(-1 0 0 1 1438 263)" fill="#1562AF" fill-opacity="0.34"/>
<rect width="86" height="3" rx="1.5" transform="matrix(-1 0 0 1 1368 106)" fill="#1562AF" fill-opacity="0.14"/>
<rect width="154" height="3" rx="1.5" transform="matrix(-1 0 0 1 1368 263)" fill="#1562AF" fill-opacity="0.14"/>
<g filter="url(#filter2_f_401_609)">
<rect x="272" y="235" width="891" height="52" fill="#14589C"/>
</g>
</g>
<defs>
<filter id="filter0_f_401_609" x="-530" y="-496" width="1036" height="1036" filterUnits="userSpaceOnUse" color-interpolation-filters="sRGB">
<feFlood flood-opacity="0" result="BackgroundImageFix"/>
<feBlend mode="normal" in="SourceGraphic" in2="BackgroundImageFix" result="shape"/>
<feGaussianBlur stdDeviation="200" result="effect1_foregroundBlur_401_609"/>
</filter>
<filter id="filter1_f_401_609" x="909.427" y="-402.708" width="891.29" height="891.29" filterUnits="userSpaceOnUse" color-interpolation-filters="sRGB">
<feFlood flood-opacity="0" result="BackgroundImageFix"/>
<feBlend mode="normal" in="SourceGraphic" in2="BackgroundImageFix" result="shape"/>
<feGaussianBlur stdDeviation="184" result="effect1_foregroundBlur_401_609"/>
</filter>
<filter id="filter2_f_401_609" x="60" y="23" width="1315" height="476" filterUnits="userSpaceOnUse" color-interpolation-filters="sRGB">
<feFlood flood-opacity="0" result="BackgroundImageFix"/>
<feBlend mode="normal" in="SourceGraphic" in2="BackgroundImageFix" result="shape"/>
<feGaussianBlur stdDeviation="106" result="effect1_foregroundBlur_401_609"/>
</filter>
<clipPath id="clip0_401_609">
<rect width="1440" height="296" fill="white"/>
</clipPath>
</defs>
</svg>
